HIERARCHY
ROOT Hips
{
 OFFSET 0.000000 0.000000 0.000000
 CHANNELS 6 Xposition Yposition Zposition Yrotation Xrotation Zrotation
 JOINT Chest
 {
  OFFSET 0.000000 9.812683 -0.003552
  CHANNELS 3 Yrotation Xrotation Zrotation
  JOINT Chest2
  {
   OFFSET 0.000000 9.777810 0.007248
   CHANNELS 3 Yrotation Xrotation Zrotation
   JOINT Chest3
   {
    OFFSET 0.000000 9.736392 0.000000
    CHANNELS 3 Yrotation Xrotation Zrotation
    JOINT Chest4
    {
     OFFSET 0.000000 9.726454 0.000000
     CHANNELS 3 Yrotation Xrotation Zrotation
     JOINT Neck
     {
      OFFSET 0.000000 14.679095 0.000000
      CHANNELS 3 Yrotation Xrotation Zrotation
      JOINT Head
      {
       OFFSET 0.000000 9.104124 0.015333
       CHANNELS 3 Yrotation Xrotation Zrotation
       End Site
       {
        OFFSET 0.000000 17.313862 0.008094
       }
      }
     }
     JOINT RightCollar
     {
      OFFSET -2.991841 9.728033 0.000000
      CHANNELS 3 Yrotation Xrotation Zrotation
      JOINT RightShoulder
      {
       OFFSET -14.105608 0.000000 0.000000
       CHANNELS 3 Yrotation Xrotation Zrotation
       JOINT RightElbow
       {
        OFFSET -30.920614 0.000000 0.000000
        CHANNELS 3 Yrotation Xrotation Zrotation
        JOINT RightWrist
        {
         OFFSET -25.011638 0.000000 0.000000
         CHANNELS 3 Yrotation Xrotation Zrotation
         End Site
         {
          OFFSET -18.498852 0.000000 0.000000
         }
        }
       }
      }
     }
     JOINT LeftCollar
     {
      OFFSET 2.991841 9.728033 0.000000
      CHANNELS 3 Yrotation Xrotation Zrotation
      JOINT LeftShoulder
      {
       OFFSET 14.105608 0.000000 0.000000
       CHANNELS 3 Yrotation Xrotation Zrotation
       JOINT LeftElbow
       {
        OFFSET 30.920614 0.000000 0.000000
        CHANNELS 3 Yrotation Xrotation Zrotation
        JOINT LeftWrist
        {
         OFFSET 25.011638 0.000000 0.000000
         CHANNELS 3 Yrotation Xrotation Zrotation
         End Site
         {
          OFFSET 18.498852 0.000000 0.000000
         }
        }
       }
      }
     }
    }
   }
  }
 }
 JOINT RightHip
 {
  OFFSET -8.005612 0.017580 0.001776
  CHANNELS 3 Yrotation Xrotation Zrotation
  JOINT RightKnee
  {
   OFFSET 0.000000 -41.413990 -0.001697
   CHANNELS 3 Yrotation Xrotation Zrotation
   JOINT RightAnkle
   {
    OFFSET 0.000000 -40.303361 -0.002870
    CHANNELS 3 Yrotation Xrotation Zrotation
    JOINT RightToe
    {
     OFFSET 0.000000 -7.855341 17.873357
     CHANNELS 3 Yrotation Xrotation Zrotation
     End Site
     {
      OFFSET 0.000000 -1.536332 6.874071
     }
    }
   }
  }
 }
 JOINT LeftHip
 {
  OFFSET 8.005612 0.017580 0.001776
  CHANNELS 3 Yrotation Xrotation Zrotation
  JOINT LeftKnee
  {
   OFFSET 0.000000 -41.413990 -0.001697
   CHANNELS 3 Yrotation Xrotation Zrotation
   JOINT LeftAnkle
   {
    OFFSET 0.000000 -40.303361 -0.002870
    CHANNELS 3 Yrotation Xrotation Zrotation
    JOINT LeftToe
    {
     OFFSET 0.000000 -7.855341 17.873357
     CHANNELS 3 Yrotation Xrotation Zrotation
     End Site
     {
      OFFSET 0.000000 -1.536332 6.874071
     }
    }
   }
  }
 }
}
MOTION
Frames: 7
Frame Time: 0.008333
0.000000 89.373800 0.000000 0.000000 -5.767889 0.000000 0.000000 11.653876 0.000000 0.000000 -5.885988 0.000000 0.000000 -0.000000 0.000000 0.000000 -0.000000 0.000000 0.000000 12.528808 0.000000 0.000000 0.711711 0.000000 0.000000 -0.000000 0.000000 0.000000 -0.000000 0.000000 2.309063 -0.000000 0.000000 -2.309063 -0.000000 -0.000000 0.000000 -0.000000 0.000000 0.000000 0.000000 0.000000 -2.309063 0.000000 0.000000 2.309063 -0.000000 0.000000 0.000000 8.520374 0.000000 0.000000 1.905768 0.000000 -0.000000 -4.658254 0.000000 0.000000 -0.000000 0.000000 0.000000 8.520374 0.000000 0.000000 1.905768 0.000000 -0.000000 -4.658254 0.000000 0.000000 -0.000000 0.000000
-0.998756 91.044338 10.630742 -157.243106 -7.706507 0.115910 6.615025 2.996987 1.133486 3.760553 1.727014 0.580087 4.703940 2.152521 0.742814 3.760553 1.727014 0.580087 3.276146 18.998293 -3.293793 7.022940 -0.225316 -7.049745 8.101856 0.974589 -2.603439 -8.393248 2.379232 89.060792 -4.448975 0.493853 -4.843686 -3.295927 0.214585 4.023819 9.980313 1.579150 3.732292 9.214745 8.662424 -88.492972 1.101594 -5.525303 1.900833 2.551763 -1.873810 -3.429560 6.269713 10.024714 0.246258 -10.418752 3.708429 0.276416 4.564996 -6.266078 0.321157 0.014470 0.042239 0.009868 23.759511 8.798044 3.926717 -9.963392 8.606174 1.116073 1.404069 -9.218354 -1.505967 -0.015123 -0.023418 -0.009479
-0.992667 91.044463 10.638633 -157.213822 -7.707301 0.119863 6.614825 2.999331 1.134963 3.760694 1.728998 0.580615 4.704123 2.154995 0.743495 3.760694 1.728998 0.580615 3.270277 19.003905 -3.295433 7.012307 -0.215289 -7.050518 8.109869 0.956483 -2.610497 -8.381795 2.344293 89.023527 -4.283136 0.512178 -4.805103 -3.262673 0.201099 4.011553 9.973538 1.574942 3.728810 9.214489 8.651287 -88.456030 1.036612 -5.545263 1.865164 2.531834 -1.879748 -3.414181 6.247214 9.997712 0.245706 -10.424912 3.752387 0.261533 4.561968 -6.279871 0.321505 0.014004 0.043510 0.011002 23.749779 8.790795 3.922105 -9.967062 8.608794 1.115804 1.384411 -9.211189 -1.503519 -0.013582 -0.021954 -0.008804
-0.985904 91.044687 10.648089 -157.181673 -7.708567 0.124699 6.613889 3.001524 1.135368 3.760566 1.730748 0.580646 4.703966 2.157182 0.743552 3.760566 1.730748 0.580646 3.263881 19.011028 -3.296048 7.000285 -0.202599 -7.049146 8.119993 0.935985 -2.613487 -8.370552 2.304668 88.981933 -4.103982 0.535977 -4.762370 -3.228158 0.189766 3.996775 9.963491 1.566906 3.726757 9.206099 8.629694 -88.422219 0.960308 -5.563368 1.824495 2.513354 -1.885213 -3.399861 6.220546 9.972422 0.242604 -10.431563 3.792229 0.249022 4.562110 -6.289901 0.321937 0.013231 0.044416 0.010917 23.739059 8.783932 3.918280 -9.969262 8.609325 1.112186 1.360344 -9.202438 -1.498656 -0.013136 -0.020461 -0.008148
-0.978951 91.045070 10.658616 -157.149360 -7.712192 0.130465 6.613227 3.003840 1.135772 3.760530 1.732490 0.580728 4.703926 2.159359 0.743672 3.760530 1.732490 0.580728 3.256418 19.019951 -3.296685 6.986189 -0.186665 -7.047356 8.133525 0.914457 -2.613343 -8.361829 2.259716 88.938269 -3.913160 0.565224 -4.720890 -3.190706 0.182938 3.980913 9.948833 1.556388 3.720968 9.192092 8.599052 -88.388816 0.869761 -5.580039 1.778181 2.497336 -1.893607 -3.384738 6.193590 9.951207 0.236789 -10.435579 3.827744 0.239686 4.563762 -6.297092 0.321880 0.012223 0.045605 0.010418 23.727538 8.778710 3.914221 -9.970420 8.610725 1.107717 1.336444 -9.193572 -1.493822 -0.013336 -0.019514 -0.006939
-0.971952 91.045616 10.669950 -157.118508 -7.717977 0.136064 6.615018 3.005922 1.136562 3.761781 1.734168 0.581178 4.705496 2.161448 0.744258 3.761781 1.734168 0.581178 3.247414 19.030846 -3.297263 6.969114 -0.167216 -7.044838 8.147267 0.890417 -2.610966 -8.358955 2.211503 88.895065 -3.712379 0.598797 -4.681423 -3.149733 0.177520 3.963911 9.927984 1.543508 3.710810 9.169486 8.559291 -88.356717 0.764479 -5.598411 1.729684 2.484301 -1.903035 -3.368691 6.169925 9.934749 0.230866 -10.436011 3.856852 0.232693 4.562682 -6.301074 0.321101 0.010658 0.047237 0.010084 23.717276 8.775756 3.910875 -9.974560 8.611090 1.103376 1.315851 -9.184396 -1.489386 -0.013378 -0.018728 -0.005740
-0.965215 91.046288 10.682250 -157.088609 -7.724189 0.142525 6.618172 3.007948 1.137137 3.763948 1.735725 0.581594 4.708210 2.163386 0.744804 3.763948 1.735725 0.581594 3.238035 19.043183 -3.297927 6.951277 -0.145122 -7.042261 8.163914 0.861922 -2.607031 -8.361049 2.161956 88.851011 -3.502951 0.636528 -4.641335 -3.104356 0.170506 3.947016 9.905897 1.527376 3.698882 9.135604 8.509378 -88.328905 0.646837 -5.619042 1.681018 2.470275 -1.913250 -3.356277 6.151435 9.922124 0.224875 -10.436723 3.878294 0.226576 4.558274 -6.302128 0.320368 0.008564 0.049678 0.009909 23.709646 8.773935 3.907257 -9.984493 8.609655 1.098672 1.297291 -9.173940 -1.484712 -0.012902 -0.018506 -0.004741
